0
SECTION
2
HEADER
9
$INSUNITS
70
4
9
$ACADVER
1
AC1014
9
$HANDSEED
5
FFFF
0
ENDSEC
0
SECTION
2
TABLES
0
TABLE
2
VPORT
5
8
100
AcDbSymbolTable
0
ENDTAB
0
TABLE
2
LTYPE
5
5
100
AcDbSymbolTable
0
LTYPE
5
14
100
AcDbSymbolTableRecord
100
AcDbLinetypeTableRecord
2
BYBLOCK
70
0
0
LTYPE
5
15
100
AcDbSymbolTableRecord
100
AcDbLinetypeTableRecord
2
BYLAYER
70
0
0
LTYPE
5
16
100
AcDbSymbolTableRecord
100
AcDbLinetypeTableRecord
2
DASHED
70
0
3
Dashed __ __ __ __ __ __ __ __ __ __ __ __ __ _
72
65
73
2
40
0.75
49
0.5
74
0
49
-0.25
74
0
0
ENDTAB
0
TABLE
2
LAYER
5
2
100
AcDbSymbolTable
70
2
0
LAYER
5
50
100
AcDbSymbolTableRecord
100
AcDbLayerTableRecord
2
0
70
0
62
7
6
CONTINUOUS
0
ENDTAB
0
TABLE
2
STYLE
5
3
100
AcDbSymbolTable
70
1
0
STYLE
5
11
100
AcDbSymbolTableRecord
100
AcDbTextStyleTableRecord
2
STANDARD
70
0
0
ENDTAB
0
TABLE
2
VIEW
5
6
100
AcDbSymbolTable
70
0
0
ENDTAB
0
TABLE
2
UCS
5
7
100
AcDbSymbolTable
70
0
0
ENDTAB
0
TABLE
2
APPID
5
9
100
AcDbSymbolTable
70
2
0
APPID
5
12
100
AcDbSymbolTableRecord
100
AcDbRegAppTableRecord
2
ACAD
70
0
0
ENDTAB
0
TABLE
2
DIMSTYLE
5
A
100
AcDbSymbolTable
70
1
0
ENDTAB
0
TABLE
2
BLOCK_RECORD
5
1
100
AcDbSymbolTable
70
1
0
BLOCK_RECORD
5
1F
100
AcDbSymbolTableRecord
100
AcDbBlockTableRecord
2
*MODEL_SPACE
0
BLOCK_RECORD
5
1B
100
AcDbSymbolTableRecord
100
AcDbBlockTableRecord
2
*PAPER_SPACE
0
ENDTAB
0
ENDSEC
0
SECTION
2
BLOCKS
0
BLOCK
5
20
100
AcDbEntity
100
AcDbBlockBegin
2
*MODEL_SPACE
0
ENDBLK
5
21
100
AcDbEntity
100
AcDbBlockEnd
0
BLOCK
5
1C
100
AcDbEntity
100
AcDbBlockBegin
2
*PAPER_SPACE
0
ENDBLK
5
1D
100
AcDbEntity
100
AcDbBlockEnd
0
ENDSEC
0
SECTION
2
ENTITIES
0
LWPOLYLINE
5
100
100
AcDbEntity
8
OUTER_PROFILES
100
AcDbPolyline
90
32
70
1
43
0.0
10
97
20
7.0000000000000107
10
97.439339828220227
20
7.0000000000000107
10
97.43933982822017
20
3.5527136788005009e-14
10
0
20
0
10
1.1657341758564144e-14
20
64.39292006587695
10
3.0000000000000098
20
64.39292006587695
10
3.0000000000000093
20
67.785840131753929
10
-7.3929200658769574
20
67.785840131753929
10
-7.3929200658769396
20
161.78584013175393
10
3.0000000000000271
20
161.78584013175393
10
3.0000000000000284
20
165.17876019763091
10
2.9976021664879227e-14
20
165.17876019763091
10
4.163336342344337e-14
20
229.57168026350789
10
97.439339828220227
20
229.57168026350786
10
97.439339828220284
20
222.57168026350783
10
97.000000000000043
20
222.57168026350783
10
97.000000000000043
20
219.17876019763085
10
100.3929200658763
20
219.17876019763085
10
100.3929200658763
20
219.61810002585105
10
107.39292006587632
20
219.61810002585105
10
107.3929200658763
20
165.17876019763088
10
97.000000000000028
20
165.17876019763088
10
97.000000000000028
20
161.78584013175393
10
100.00000000000001
20
161.78584013175393
10
100
20
67.785840131753915
10
97.000000000000014
20
67.785840131753915
10
97.000000000000014
20
64.392920065876936
10
107.39292006587701
20
64.39292006587695
10
107.39292006587701
20
9.953580237656805
10
100.39292006587698
20
9.9535802376567695
10
100.39292006587698
20
10.392920065876954
10
97
20
10.392920065876954
0
CIRCLE
5
101
100
AcDbEntity
8
INTERIOR_PROFILES
100
AcDbCircle
10
-80.000000000000028
20
194.78584013175393
30
0
40
1.4999999999999858
210
0
220
0
230
-1
0
CIRCLE
5
102
100
AcDbEntity
8
INTERIOR_PROFILES
100
AcDbCircle
10
-50.000000000000014
20
114.78584013175393
30
0
40
2.5
210
0
220
0
230
-1
0
CIRCLE
5
103
100
AcDbEntity
8
INTERIOR_PROFILES
100
AcDbCircle
10
-103.19383075472153
20
39.130973355292284
30
0
40
1.4999999999999947
210
0
220
0
230
-1
0
CIRCLE
5
104
100
AcDbEntity
8
INTERIOR_PROFILES
100
AcDbCircle
10
-20.000000000000036
20
194.78584013175393
30
0
40
1.4999999999999858
210
0
220
0
230
-1
0
CIRCLE
5
105
100
AcDbEntity
8
INTERIOR_PROFILES
100
AcDbCircle
10
-103.19383075472082
20
190.44070690821556
30
0
40
1.4999999999999858
210
0
220
0
230
-1
0
CIRCLE
5
106
100
AcDbEntity
8
INTERIOR_PROFILES
100
AcDbCircle
10
-20.000000000000007
20
34.785840131753929
30
0
40
1.5000000000000036
210
0
220
0
230
-1
0
CIRCLE
5
107
100
AcDbEntity
8
INTERIOR_PROFILES
100
AcDbCircle
10
-80
20
34.785840131753915
30
0
40
1.5000000000000036
210
0
220
0
230
-1
0
LINE
5
108
100
AcDbEntity
8
BEND
100
AcDbLine
10
98.696460032938504
20
64.392920065876936
30
6.9429467277067225e-14
11
98.696460032938489
21
10.392920065876954
31
8.3266726846887056e-15
0
LINE
5
109
100
AcDbEntity
8
BEND
100
AcDbLine
10
97.000000000000028
20
66.089380098815425
30
4.9960036108132057e-14
11
3.0000000000000071
21
66.08938009881544
31
4.8572257327350599e-14
0
LINE
5
110
100
AcDbEntity
8
BEND
100
AcDbLine
10
98.696460032938205
20
219.17876019763088
30
2.4237247930343743e-14
11
98.696460032938177
21
165.17876019763091
31
8.8608816875205075e-14
0
LINE
5
111
100
AcDbEntity
8
BEND
100
AcDbLine
10
3.9968028886505635e-14
20
220.87522023056934
30
-2.0138078818631773e-14
11
97.000000000000028
21
220.87522023056934
31
-2.062208909834629e-14
0
LINE
5
112
100
AcDbEntity
8
BEND
100
AcDbLine
10
3.0000000000000195
20
163.48230016469242
30
4.9960036108132044e-14
11
97.000000000000043
21
163.48230016469242
31
4.8572257327350611e-14
0
LINE
5
113
100
AcDbEntity
8
BEND
100
AcDbLine
10
1.3035399670615035
20
67.785840131753972
30
5.6621374255882984e-14
11
1.3035399670615209
21
161.7858401317539
31
5.6621374255882984e-14
0
LINE
5
114
100
AcDbEntity
8
BEND
100
AcDbLine
10
97
20
8.6964600329385355
30
1.3419507442217149e-14
11
1.7763568394002505e-14
21
8.6964600329385533
31
2.7192546528424995e-15
0
LINE
5
115
100
AcDbEntity
8
BEND_EXTENT
100
AcDbLine
10
-0.39292006587696438
20
67.785840131753972
30
8.8817841970012523e-14
11
-0.39292006587694717
21
161.7858401317539
31
8.8817841970012523e-14
0
LINE
5
116
100
AcDbEntity
8
BEND_EXTENT
100
AcDbLine
10
3.0000000000000275
20
161.78584013175393
30
5.3290705182007514e-14
11
3.0000000000000107
21
67.785840131753929
31
5.3290705182007514e-14
0
LINE
5
117
100
AcDbEntity
8
BEND_EXTENT
100
AcDbLine
10
3.0000000000000107
20
67.785840131753929
30
5.3290705182007514e-14
11
97.000000000000014
21
67.785840131753915
31
5.3290705182007527e-14
0
LINE
5
118
100
AcDbEntity
8
BEND_EXTENT
100
AcDbLine
10
97.000000000000028
20
161.78584013175393
30
5.3290705182007527e-14
11
3.0000000000000275
21
161.78584013175393
31
5.3290705182007514e-14
0
LINE
5
119
100
AcDbEntity
8
BEND_EXTENT
100
AcDbLine
10
100.39292006587699
20
64.392920065876936
30
7.1054273576010031e-14
11
100.39292006587698
21
10.392920065876954
31
8.881784197001276e-15
0
LINE
5
120
100
AcDbEntity
8
BEND_EXTENT
100
AcDbLine
10
97
20
10.392920065876954
30
8.8817841970012681e-15
11
97.000000000000014
21
64.392920065876936
31
5.3290705182007527e-14
0
LINE
5
121
100
AcDbEntity
8
BEND_EXTENT
100
AcDbLine
10
97.000000000000014
20
64.392920065876936
30
5.3290705182007527e-14
11
3.0000000000000071
21
64.39292006587695
31
5.3290705182007514e-14
0
LINE
5
122
100
AcDbEntity
8
BEND_EXTENT
100
AcDbLine
10
1.6653345369377348e-15
20
10.392920065876972
30
8.8817841970012523e-15
11
97
21
10.392920065876954
31
8.8817841970012681e-15
0
LINE
5
123
100
AcDbEntity
8
BEND_EXTENT
100
AcDbLine
10
97
20
7.0000000000000107
30
8.8817841970012681e-15
11
0
21
7.0000000000000107
31
8.8817841970012523e-15
0
LINE
5
124
100
AcDbEntity
8
BEND_EXTENT
100
AcDbLine
10
100.3929200658763
20
219.17876019763085
30
4.4408920985006274e-14
11
100.39292006587628
21
165.17876019763091
31
1.0658141036401505e-13
0
LINE
5
125
100
AcDbEntity
8
BEND_EXTENT
100
AcDbLine
10
97.000000000000028
20
165.17876019763088
30
5.3290705182007527e-14
11
97.000000000000043
21
219.17876019763085
31
8.8817841970012681e-15
0
LINE
5
126
100
AcDbEntity
8
BEND_EXTENT
100
AcDbLine
10
97.000000000000043
20
219.17876019763085
30
8.8817841970012681e-15
11
3.5527136788005009e-14
21
219.17876019763088
31
8.8817841970012523e-15
0
LINE
5
127
100
AcDbEntity
8
BEND_EXTENT
100
AcDbLine
10
3.0000000000000284
20
165.17876019763091
30
5.3290705182007514e-14
11
97.000000000000028
21
165.17876019763088
31
5.3290705182007527e-14
0
LINE
5
128
100
AcDbEntity
8
BEND_EXTENT
100
AcDbLine
10
4.0523140398818214e-14
20
222.57168026350786
30
-5.3290705182007514e-14
11
97.000000000000043
21
222.57168026350783
31
-5.3290705182007501e-14
0
ENDSEC
0
SECTION
2
OBJECTS
0
DICTIONARY
5
C
100
AcDbDictionary
3
ACAD_GROUP
350
D
3
ACAD_MLINESTYLE
350
17
0
DICTIONARY
5
D
100
AcDbDictionary
0
DICTIONARY
5
1A
330
C
100
AcDbDictionary
0
DICTIONARY
5
17
100
AcDbDictionary
0
ENDSEC
0
EOF
